<svg width="133" height="45" viewBox="0 0 133 45" fill="none" xmlns="http://www.w3.org/2000/svg">
<path d="M0 8C0 3.58172 3.58172 0 8 0H37C41.4183 0 45 3.58172 45 8V37C45 41.4183 41.4183 45 37 45H8C3.58172 45 0 41.4183 0 37V8Z" fill="#623EA2"/>
<path d="M15 30L22.25 37.25L29.497 30L22.25 22.75L15 30Z" fill="#9B20B7"/>
<path d="M29.5 30L22.25 37.25L29.5 44.5V30Z" fill="#E53AFF"/>
<path d="M0 37V8C0 3.58172 3.58172 0 8 0H15V15L30 0.5H37H38.5L39.375 1H40L41.25 1.5L42.5 2.5L15 30L30 45H15H8C3.58172 45 0 41.4183 0 37Z" fill="#2E1F49"/>
<path d="M44.5 15L29.5 30V45H36.5C40.9183 45 44.5 41.4183 44.5 37V15Z" fill="#2EFF6C"/>
<path d="M8 0.5H37C41.1421 0.5 44.5 3.85786 44.5 8V37C44.5 41.1421 41.1421 44.5 37 44.5H8C3.85786 44.5 0.5 41.1421 0.5 37V8C0.5 3.85786 3.85786 0.5 8 0.5Z" stroke="#2E1F49"/>
<path d="M53 0.5H125C129.142 0.5 132.5 3.85786 132.5 8V37C132.5 41.1421 129.142 44.5 125 44.5H53C48.8579 44.5 45.5 41.1421 45.5 37V8C45.5 3.85786 48.8579 0.5 53 0.5Z" stroke="#2E1F49"/>
<path d="M57.008 38V23.816H59.768V36.08H62.984V38H57.008ZM67.6359 38.192C66.8359 38.192 66.1479 38.096 65.5719 37.904C65.0119 37.712 64.5879 37.336 64.2999 36.776C64.0119 36.2 63.8679 35.36 63.8679 34.256V29.216C63.8679 27.984 64.1799 27.128 64.8039 26.648C65.4279 26.152 66.3719 25.904 67.6359 25.904C68.8999 25.904 69.8359 26.152 70.4439 26.648C71.0679 27.128 71.3799 27.984 71.3799 29.216V34.256C71.3799 35.36 71.2359 36.192 70.9479 36.752C70.6759 37.312 70.2599 37.696 69.6999 37.904C69.1399 38.096 68.4519 38.192 67.6359 38.192ZM67.6359 36.56C67.9879 36.56 68.2439 36.464 68.4039 36.272C68.5639 36.064 68.6439 35.696 68.6439 35.168V28.928C68.6439 28.432 68.5639 28.08 68.4039 27.872C68.2599 27.648 68.0039 27.536 67.6359 27.536C67.2839 27.536 67.0199 27.64 66.8439 27.848C66.6839 28.056 66.6039 28.416 66.6039 28.928V35.168C66.6039 35.696 66.6839 36.064 66.8439 36.272C67.0199 36.464 67.2839 36.56 67.6359 36.56ZM76.5421 40.856C76.3181 40.856 76.0461 40.848 75.7261 40.832C75.4061 40.816 75.0861 40.792 74.7661 40.76C74.4621 40.728 74.1981 40.696 73.9741 40.664C73.7661 40.648 73.6381 40.632 73.5901 40.616V39.152C73.7981 39.184 74.1101 39.216 74.5261 39.248C74.9421 39.296 75.2941 39.32 75.5821 39.32C75.8381 39.32 76.0781 39.296 76.3021 39.248C76.5421 39.216 76.7501 39.136 76.9261 39.008C77.1181 38.896 77.2701 38.72 77.3821 38.48C77.4941 38.256 77.5501 37.952 77.5501 37.568V35.864C77.4701 36.056 77.3501 36.272 77.1901 36.512C77.0461 36.736 76.8301 36.928 76.5421 37.088C76.2541 37.248 75.8461 37.328 75.3181 37.328C74.9341 37.328 74.5821 37.288 74.2621 37.208C73.9581 37.112 73.6941 36.944 73.4701 36.704C73.2621 36.448 73.0941 36.088 72.9661 35.624C72.8381 35.144 72.7741 34.52 72.7741 33.752V28.904C72.7741 27.896 72.9821 27.144 73.3981 26.648C73.8301 26.136 74.4781 25.88 75.3421 25.88C75.8541 25.88 76.2621 25.944 76.5661 26.072C76.8861 26.2 77.1421 26.384 77.3341 26.624C77.5261 26.848 77.6781 27.112 77.7901 27.416L77.4301 27.464L77.8381 26.12H80.2861V36.224C80.2861 36.8 80.2301 37.368 80.1181 37.928C80.0221 38.472 79.8461 38.96 79.5901 39.392C79.3341 39.84 78.9581 40.192 78.4621 40.448C77.9821 40.72 77.3421 40.856 76.5421 40.856ZM76.4941 35.696C76.7661 35.696 76.9741 35.632 77.1181 35.504C77.2781 35.36 77.3821 35.168 77.4301 34.928C77.4941 34.672 77.5261 34.408 77.5261 34.136V28.256C77.4941 28.176 77.4381 28.096 77.3581 28.016C77.2781 27.936 77.1661 27.864 77.0221 27.8C76.8941 27.736 76.7101 27.704 76.4701 27.704C76.1501 27.704 75.9101 27.8 75.7501 27.992C75.5901 28.168 75.5101 28.504 75.5101 29V34.472C75.5101 34.744 75.5421 34.968 75.6061 35.144C75.6701 35.304 75.7501 35.424 75.8461 35.504C75.9581 35.584 76.0701 35.64 76.1821 35.672C76.2941 35.688 76.3981 35.696 76.4941 35.696ZM85.5656 38.192C84.7656 38.192 84.0776 38.096 83.5016 37.904C82.9416 37.712 82.5176 37.336 82.2296 36.776C81.9416 36.2 81.7976 35.36 81.7976 34.256V29.216C81.7976 27.984 82.1096 27.128 82.7336 26.648C83.3576 26.152 84.3016 25.904 85.5656 25.904C86.8296 25.904 87.7656 26.152 88.3736 26.648C88.9976 27.128 89.3096 27.984 89.3096 29.216V34.256C89.3096 35.36 89.1656 36.192 88.8776 36.752C88.6056 37.312 88.1896 37.696 87.6296 37.904C87.0696 38.096 86.3816 38.192 85.5656 38.192ZM85.5656 36.56C85.9176 36.56 86.1736 36.464 86.3336 36.272C86.4936 36.064 86.5736 35.696 86.5736 35.168V28.928C86.5736 28.432 86.4936 28.08 86.3336 27.872C86.1896 27.648 85.9336 27.536 85.5656 27.536C85.2136 27.536 84.9496 27.64 84.7736 27.848C84.6136 28.056 84.5336 28.416 84.5336 28.928V35.168C84.5336 35.696 84.6136 36.064 84.7736 36.272C84.9496 36.464 85.2136 36.56 85.5656 36.56ZM98.8402 38.288C98.0562 38.288 97.3602 38.192 96.7522 38C96.1602 37.824 95.6882 37.448 95.3362 36.872C95.0002 36.28 94.8322 35.408 94.8322 34.256V26.816C94.8322 25.968 95.0002 25.312 95.3362 24.848C95.6882 24.384 96.1682 24.064 96.7762 23.888C97.3842 23.696 98.0802 23.6 98.8642 23.6C99.6642 23.6 100.352 23.696 100.928 23.888C101.52 24.08 101.976 24.408 102.296 24.872C102.616 25.336 102.776 25.984 102.776 26.816V29.744H99.9922V26.696C99.9922 26.312 99.9442 26.024 99.8482 25.832C99.7522 25.624 99.6162 25.488 99.4402 25.424C99.2802 25.36 99.0882 25.328 98.8642 25.328C98.6402 25.328 98.4402 25.36 98.2642 25.424C98.0882 25.488 97.9522 25.624 97.8562 25.832C97.7602 26.024 97.7122 26.312 97.7122 26.696V35.288C97.7122 35.656 97.7602 35.944 97.8562 36.152C97.9522 36.344 98.0882 36.48 98.2642 36.56C98.4402 36.624 98.6402 36.656 98.8642 36.656C99.0882 36.656 99.2802 36.624 99.4402 36.56C99.6162 36.48 99.7522 36.344 99.8482 36.152C99.9442 35.944 99.9922 35.656 99.9922 35.288V32.48H102.776V34.232C102.776 35.4 102.616 36.28 102.296 36.872C101.976 37.448 101.52 37.824 100.928 38C100.352 38.192 99.6562 38.288 98.8402 38.288ZM108.139 38.168C107.291 38.168 106.563 38.048 105.955 37.808C105.363 37.568 104.907 37.144 104.587 36.536C104.267 35.928 104.107 35.072 104.107 33.968V33.128C104.603 33.128 105.091 33.128 105.571 33.128C106.051 33.128 106.531 33.128 107.011 33.128V34.208C107.011 34.8 107.059 35.256 107.155 35.576C107.251 35.88 107.387 36.096 107.563 36.224C107.739 36.336 107.947 36.392 108.187 36.392C108.555 36.392 108.843 36.264 109.051 36.008C109.275 35.736 109.387 35.216 109.387 34.448C109.387 33.856 109.291 33.416 109.099 33.128C108.923 32.824 108.635 32.584 108.235 32.408C107.835 32.216 107.323 31.984 106.699 31.712C106.139 31.472 105.675 31.184 105.307 30.848C104.939 30.512 104.667 30.088 104.491 29.576C104.315 29.064 104.227 28.44 104.227 27.704C104.227 26.776 104.347 26.024 104.587 25.448C104.843 24.872 105.259 24.456 105.835 24.2C106.427 23.928 107.219 23.792 108.211 23.792C109.491 23.792 110.467 24.072 111.139 24.632C111.827 25.176 112.171 26 112.171 27.104V28.808C111.707 28.808 111.243 28.808 110.779 28.808C110.331 28.808 109.867 28.808 109.387 28.808V27.944C109.387 27.224 109.299 26.72 109.123 26.432C108.963 26.144 108.667 26 108.235 26C107.819 26 107.523 26.128 107.347 26.384C107.171 26.64 107.083 27.056 107.083 27.632C107.083 28.16 107.187 28.576 107.395 28.88C107.619 29.168 107.899 29.392 108.235 29.552C108.571 29.696 108.931 29.84 109.315 29.984C110.019 30.256 110.595 30.536 111.043 30.824C111.491 31.096 111.819 31.48 112.027 31.976C112.235 32.456 112.339 33.152 112.339 34.064C112.339 35.088 112.163 35.904 111.811 36.512C111.475 37.104 110.987 37.528 110.347 37.784C109.723 38.04 108.987 38.168 108.139 38.168ZM117.514 38.168C116.666 38.168 115.938 38.048 115.33 37.808C114.738 37.568 114.282 37.144 113.962 36.536C113.642 35.928 113.482 35.072 113.482 33.968V33.128C113.978 33.128 114.466 33.128 114.946 33.128C115.426 33.128 115.906 33.128 116.386 33.128V34.208C116.386 34.8 116.434 35.256 116.53 35.576C116.626 35.88 116.762 36.096 116.938 36.224C117.114 36.336 117.322 36.392 117.562 36.392C117.93 36.392 118.218 36.264 118.426 36.008C118.65 35.736 118.762 35.216 118.762 34.448C118.762 33.856 118.666 33.416 118.474 33.128C118.298 32.824 118.01 32.584 117.61 32.408C117.21 32.216 116.698 31.984 116.074 31.712C115.514 31.472 115.05 31.184 114.682 30.848C114.314 30.512 114.042 30.088 113.866 29.576C113.69 29.064 113.602 28.44 113.602 27.704C113.602 26.776 113.722 26.024 113.962 25.448C114.218 24.872 114.634 24.456 115.21 24.2C115.802 23.928 116.594 23.792 117.586 23.792C118.866 23.792 119.842 24.072 120.514 24.632C121.202 25.176 121.546 26 121.546 27.104V28.808C121.082 28.808 120.618 28.808 120.154 28.808C119.706 28.808 119.242 28.808 118.762 28.808V27.944C118.762 27.224 118.674 26.72 118.498 26.432C118.338 26.144 118.042 26 117.61 26C117.194 26 116.898 26.128 116.722 26.384C116.546 26.64 116.458 27.056 116.458 27.632C116.458 28.16 116.562 28.576 116.77 28.88C116.994 29.168 117.274 29.392 117.61 29.552C117.946 29.696 118.306 29.84 118.69 29.984C119.394 30.256 119.97 30.536 120.418 30.824C120.866 31.096 121.194 31.48 121.402 31.976C121.61 32.456 121.714 33.152 121.714 34.064C121.714 35.088 121.538 35.904 121.186 36.512C120.85 37.104 120.362 37.528 119.722 37.784C119.098 38.04 118.362 38.168 117.514 38.168Z" fill="black"/>
<path d="M52.424 22V9.784H50.216V7.816H57.416V9.784H55.208V22H52.424ZM61.4026 22.192C60.5706 22.192 59.8666 22.104 59.2906 21.928C58.7306 21.736 58.3066 21.368 58.0186 20.824C57.7306 20.264 57.5866 19.424 57.5866 18.304V12.952C57.5866 11.784 57.8986 10.984 58.5226 10.552C59.1466 10.12 60.0906 9.904 61.3546 9.904C62.6026 9.904 63.5386 10.12 64.1626 10.552C64.7866 10.984 65.0986 11.784 65.0986 12.952V16.192H60.3226V19.432C60.3226 19.912 60.3946 20.248 60.5386 20.44C60.6986 20.632 60.9786 20.728 61.3786 20.728C61.7466 20.728 61.9946 20.64 62.1226 20.464C62.2666 20.272 62.3386 19.928 62.3386 19.432V17.536H65.0986V18.28C65.0986 19.4 64.9546 20.24 64.6666 20.8C64.3786 21.36 63.9546 21.736 63.3946 21.928C62.8506 22.104 62.1866 22.192 61.4026 22.192ZM60.3226 14.944H62.3386V12.808C62.3386 12.344 62.2666 12.016 62.1226 11.824C61.9946 11.632 61.7386 11.536 61.3546 11.536C60.9706 11.536 60.6986 11.632 60.5386 11.824C60.3946 12.016 60.3226 12.344 60.3226 12.808V14.944ZM66.5677 22V10.12H68.8957L69.1357 11.536C69.2957 11.056 69.5757 10.664 69.9757 10.36C70.3917 10.056 70.8717 9.904 71.4157 9.904C72.3117 9.904 72.9517 10.096 73.3357 10.48C73.7197 10.864 73.9357 11.424 73.9837 12.16H73.6957C73.7917 11.52 74.0637 10.984 74.5117 10.552C74.9597 10.12 75.5037 9.904 76.1437 9.904C77.1677 9.904 77.8557 10.152 78.2077 10.648C78.5757 11.144 78.7597 11.896 78.7597 12.904V22H76.0237V13.096C76.0237 12.632 75.9517 12.312 75.8077 12.136C75.6637 11.944 75.4317 11.848 75.1117 11.848C74.8397 11.848 74.5997 11.92 74.3917 12.064C74.1997 12.208 74.0797 12.392 74.0317 12.616V22H71.2957V13.024C71.2957 12.608 71.2237 12.312 71.0797 12.136C70.9357 11.944 70.6957 11.848 70.3597 11.848C70.0877 11.848 69.8637 11.912 69.6877 12.04C69.5277 12.152 69.3997 12.296 69.3037 12.472V22H66.5677ZM80.3958 24.784V10.12H83.1078V11.056C83.2678 10.784 83.4918 10.528 83.7798 10.288C84.0678 10.048 84.5398 9.928 85.1958 9.928C85.7558 9.928 86.2358 10.024 86.6358 10.216C87.0358 10.392 87.3478 10.688 87.5718 11.104C87.7958 11.504 87.9078 12.056 87.9078 12.76V18.52C87.9078 19.4 87.8118 20.112 87.6198 20.656C87.4278 21.184 87.1318 21.568 86.7318 21.808C86.3318 22.032 85.8198 22.144 85.1958 22.144C84.6358 22.144 84.1878 22.048 83.8518 21.856C83.5318 21.648 83.2918 21.416 83.1318 21.16V24.784H80.3958ZM84.1638 20.608C84.4038 20.608 84.5878 20.576 84.7158 20.512C84.8438 20.432 84.9398 20.328 85.0038 20.2C85.0838 20.072 85.1318 19.928 85.1478 19.768C85.1638 19.592 85.1718 19.4 85.1718 19.192V13.048C85.1718 12.84 85.1638 12.648 85.1478 12.472C85.1318 12.296 85.0838 12.144 85.0038 12.016C84.9398 11.888 84.8438 11.792 84.7158 11.728C84.5878 11.664 84.4038 11.632 84.1638 11.632C83.9398 11.632 83.7558 11.672 83.6118 11.752C83.4838 11.816 83.3798 11.912 83.2998 12.04C83.2358 12.152 83.1878 12.28 83.1558 12.424C83.1398 12.568 83.1318 12.696 83.1318 12.808V19.264C83.1318 19.536 83.1558 19.776 83.2038 19.984C83.2678 20.192 83.3718 20.352 83.5158 20.464C83.6598 20.56 83.8758 20.608 84.1638 20.608ZM93.089 22.192C92.289 22.192 91.601 22.096 91.025 21.904C90.465 21.712 90.041 21.336 89.753 20.776C89.465 20.2 89.321 19.36 89.321 18.256V13.216C89.321 11.984 89.633 11.128 90.257 10.648C90.881 10.152 91.825 9.904 93.089 9.904C94.353 9.904 95.289 10.152 95.897 10.648C96.521 11.128 96.833 11.984 96.833 13.216V18.256C96.833 19.36 96.689 20.192 96.401 20.752C96.129 21.312 95.713 21.696 95.153 21.904C94.593 22.096 93.905 22.192 93.089 22.192ZM93.089 20.56C93.441 20.56 93.697 20.464 93.857 20.272C94.017 20.064 94.097 19.696 94.097 19.168V12.928C94.097 12.432 94.017 12.08 93.857 11.872C93.713 11.648 93.457 11.536 93.089 11.536C92.737 11.536 92.473 11.64 92.297 11.848C92.137 12.056 92.057 12.416 92.057 12.928V19.168C92.057 19.696 92.137 20.064 92.297 20.272C92.473 20.464 92.737 20.56 93.089 20.56ZM98.4193 22V10.12H100.747L100.987 11.536C101.131 11.184 101.347 10.904 101.635 10.696C101.923 10.472 102.227 10.32 102.547 10.24C103.075 10.016 103.627 9.96 104.203 10.072V12.184C104.171 12.168 104.043 12.152 103.819 12.136C103.611 12.104 103.371 12.104 103.099 12.136C102.827 12.152 102.595 12.216 102.403 12.328C102.003 12.472 101.691 12.72 101.467 13.072C101.259 13.424 101.155 13.848 101.155 14.344V22H98.4193ZM107.305 22.192C106.889 22.192 106.497 22.136 106.129 22.024C105.777 21.912 105.481 21.68 105.241 21.328C105.017 20.96 104.905 20.424 104.905 19.72V18.136C104.905 17.384 105.121 16.776 105.553 16.312C106.001 15.832 106.697 15.424 107.641 15.088C108.137 14.88 108.529 14.696 108.817 14.536C109.105 14.376 109.313 14.184 109.441 13.96C109.569 13.72 109.633 13.4 109.633 13V12.352C109.633 12.096 109.593 11.904 109.513 11.776C109.433 11.632 109.313 11.528 109.153 11.464C109.009 11.4 108.841 11.368 108.649 11.368C108.233 11.368 107.961 11.512 107.833 11.8C107.705 12.072 107.641 12.536 107.641 13.192V14.2H105.169V12.928C105.169 12.336 105.249 11.816 105.409 11.368C105.585 10.904 105.921 10.544 106.417 10.288C106.913 10.016 107.657 9.88 108.649 9.88C109.657 9.88 110.433 9.976 110.977 10.168C111.521 10.344 111.897 10.632 112.105 11.032C112.313 11.416 112.417 11.944 112.417 12.616V22H109.681V20.68C109.553 21.144 109.257 21.512 108.793 21.784C108.345 22.056 107.849 22.192 107.305 22.192ZM108.481 20.392C108.913 20.392 109.209 20.232 109.369 19.912C109.545 19.576 109.633 19.112 109.633 18.52V15.472C109.537 15.632 109.377 15.776 109.153 15.904C108.929 16.016 108.705 16.144 108.481 16.288C108.177 16.496 107.945 16.712 107.785 16.936C107.625 17.144 107.545 17.44 107.545 17.824V19.048C107.545 19.384 107.585 19.656 107.665 19.864C107.745 20.056 107.857 20.192 108.001 20.272C108.145 20.352 108.305 20.392 108.481 20.392ZM114.052 22V10.12H116.38L116.62 11.536C116.764 11.184 116.98 10.904 117.268 10.696C117.556 10.472 117.86 10.32 118.18 10.24C118.708 10.016 119.26 9.96 119.836 10.072V12.184C119.804 12.168 119.676 12.152 119.452 12.136C119.244 12.104 119.004 12.104 118.732 12.136C118.46 12.152 118.228 12.216 118.036 12.328C117.636 12.472 117.324 12.72 117.1 13.072C116.892 13.424 116.788 13.848 116.788 14.344V22H114.052ZM122.314 24.808C121.866 24.808 121.434 24.768 121.018 24.688C120.602 24.624 120.274 24.56 120.034 24.496V23.056C120.13 23.088 120.266 23.12 120.442 23.152C120.634 23.184 120.834 23.2 121.042 23.2C121.25 23.2 121.482 23.168 121.738 23.104C122.01 23.04 122.194 22.832 122.29 22.48C122.322 22.336 122.354 22.184 122.386 22.024C122.434 21.864 122.434 21.672 122.386 21.448L119.962 10.12H122.794L124.234 19.384H124.258L125.698 10.12H128.29L125.986 20.968C125.714 22.328 125.282 23.304 124.69 23.896C124.098 24.504 123.306 24.808 122.314 24.808Z" fill="black"/>
</svg>
